<?xml version="1.0" encoding="utf-8"?>
<!-- Generator: Adobe Illustrator 21.0.0, SVG Export Plug-In . SVG Version: 6.00 Build 0)  -->
<svg version="1.1" id="Layer_1" xmlns="http://www.w3.org/2000/svg" xmlns:xlink="http://www.w3.org/1999/xlink" x="0px" y="0px"
	 width="175px" height="69px" viewBox="0 0 175 69" style="enable-background:new 0 0 175 69;" xml:space="preserve">
<style type="text/css">
	.st0{clip-path:url(#SVGID_2_);fill:url(#SVGID_3_);}
	.st1{clip-path:url(#SVGID_2_);fill:url(#SVGID_4_);}
	.st2{clip-path:url(#SVGID_2_);fill:url(#SVGID_5_);}
	.st3{fill:#00AEEF;}
	.st4{fill:#002F54;stroke:#002F54;stroke-miterlimit:10;}
</style>
<g>
	<g>
		<defs>
			
				<ellipse id="SVGID_1_" transform="matrix(2.968136e-02 -0.9996 0.9996 2.968136e-02 -9.674 59.0341)" cx="25.6" cy="34.5" rx="25.6" ry="25.6"/>
		</defs>
		<clipPath id="SVGID_2_">
			<use xlink:href="#SVGID_1_"  style="overflow:visible;"/>
		</clipPath>
		
			<linearGradient id="SVGID_3_" gradientUnits="userSpaceOnUse" x1="221.5568" y1="3.313" x2="261.0776" y2="3.313" gradientTransform="matrix(0.9675 -0.2531 0.2531 0.9675 -216.0239 93.6215)">
			<stop  offset="0.1987" style="stop-color:#21428A"/>
			<stop  offset="0.3691" style="stop-color:#22438B"/>
			<stop  offset="0.5064" style="stop-color:#26498F"/>
			<stop  offset="0.6321" style="stop-color:#2F5296"/>
			<stop  offset="0.7509" style="stop-color:#3A5FA0"/>
			<stop  offset="0.8649" style="stop-color:#4871AF"/>
			<stop  offset="0.9737" style="stop-color:#5A88C4"/>
			<stop  offset="1" style="stop-color:#5E90CB"/>
		</linearGradient>
		<path class="st0" d="M12.6,8.6C15.8,6.5,19,5,22.2,4c2.9,0,5.8,0.2,8.4,0.7c-3.5,0.6-7.2,1.7-10.8,3.5C17.4,8.1,15,8.2,12.6,8.6z
			 M7.6,21c2.4-4.2,5.7-7.8,9.5-10.5c-2.4,0.1-4.7,0.3-7,0.9c-3.2,2.9-5.9,6.5-7.8,10.5C3.9,21.5,5.7,21.2,7.6,21z M3.8,39.4
			C3.3,34.3,4,29.2,5.9,24.5c-1.8,0.1-3.5,0.4-5.1,0.7c-1.6,4.5-2.1,9.3-1.7,14C0.6,39.3,2.2,39.4,3.8,39.4z M11.3,55.8
			c-3.2-3.6-5.6-7.9-6.8-12.6c-1.7-0.1-3.3-0.2-4.8-0.4c1,4.5,3,8.6,5.6,12.1C7.3,55.3,9.3,55.6,11.3,55.8z M24.9,64.7
			c-3.8-1.5-7.7-3.6-11.1-6.5c-2.1-0.2-4.2-0.5-6.3-1c2.8,2.9,6.1,5.2,9.5,6.9C19.7,64.6,22.3,64.8,24.9,64.7z"/>
		
			<linearGradient id="SVGID_4_" gradientUnits="userSpaceOnUse" x1="228.7634" y1="5.4016" x2="266.6815" y2="5.4016" gradientTransform="matrix(0.9675 -0.2531 0.2531 0.9675 -216.0239 93.6215)">
			<stop  offset="0.2988" style="stop-color:#21428A"/>
			<stop  offset="0.3527" style="stop-color:#2E5296"/>
			<stop  offset="0.4237" style="stop-color:#3D63A4"/>
			<stop  offset="0.5013" style="stop-color:#4A72B0"/>
			<stop  offset="0.5863" style="stop-color:#537FBB"/>
			<stop  offset="0.6829" style="stop-color:#5988C3"/>
			<stop  offset="0.8007" style="stop-color:#5D8EC9"/>
			<stop  offset="1" style="stop-color:#5E90CB"/>
		</linearGradient>
		<path class="st1" d="M21.9,9.9c3.3-1.7,6.7-2.6,9.8-3c2.1,0.7,4.1,1.6,5.9,2.5c-3.1,0.1-6.5,0.8-9.9,2.1
			C25.9,10.8,24,10.3,21.9,9.9z M15.7,21.9c2.4-3.9,5.7-7,9.3-9.1c-1.9-0.6-3.8-1.1-5.8-1.4c-3.5,2.4-6.7,5.7-8.9,9.9
			C12.1,21.4,13.9,21.6,15.7,21.9z M11.8,39.8c-0.6-5,0.2-10,2.2-14.6c-1.8-0.2-3.6-0.4-5.3-0.4c-1.9,4.7-2.6,9.9-2.1,15
			C8.3,39.7,10,39.8,11.8,39.8z M19.2,55.2c-3.1-3.1-5.5-7.1-6.7-11.7c-1.8,0.1-3.5,0.1-5.1,0c1.1,4.7,3.4,8.9,6.4,12.2
			C15.5,55.7,17.4,55.5,19.2,55.2z M31.6,62.1c-3.3-0.9-6.8-2.5-10-4.8c-1.8,0.4-3.6,0.6-5.5,0.7c3.1,2.6,6.5,4.4,9.9,5.5
			C28,63.2,29.8,62.7,31.6,62.1z"/>
		
			<linearGradient id="SVGID_5_" gradientUnits="userSpaceOnUse" x1="236.8889" y1="7.6965" x2="271.5469" y2="7.6965" gradientTransform="matrix(0.9675 -0.2531 0.2531 0.9675 -216.0239 93.6215)">
			<stop  offset="5.172410e-02" style="stop-color:#21428A"/>
			<stop  offset="7.308075e-02" style="stop-color:#27498F"/>
			<stop  offset="0.1291" style="stop-color:#365B9D"/>
			<stop  offset="0.1926" style="stop-color:#436AA9"/>
			<stop  offset="0.2643" style="stop-color:#4D77B4"/>
			<stop  offset="0.348" style="stop-color:#5581BD"/>
			<stop  offset="0.4515" style="stop-color:#5A89C5"/>
			<stop  offset="0.5968" style="stop-color:#5D8ECA"/>
			<stop  offset="1" style="stop-color:#5E90CB"/>
		</linearGradient>
		<path class="st2" d="M30.9,13c1.7-0.6,3.4-1,5-1.2c1.5-0.2,3-0.2,4.4-0.2c1.5,1.1,2.7,2.4,3.9,3.7c-1.2-0.1-2.6-0.1-4,0
			c-1.5,0.1-3,0.4-4.5,0.9C34.2,15,32.6,14,30.9,13z M24.7,24.3c2.3-3.3,5.3-5.7,8.6-7.2c-1.6-1.1-3.3-2.1-5-3
			c-3.6,1.8-6.9,4.7-9.3,8.4C20.9,23,22.8,23.6,24.7,24.3z M21,39.7c-0.5-4.3,0.2-8.7,2.1-12.6c-2-0.5-3.9-1-5.9-1.4
			c-2,4.4-2.8,9.4-2.2,14.2C17,39.8,19,39.7,21,39.7z M27.8,52.5c-2.8-2.5-5-5.8-6.1-9.7c-2,0.2-4,0.4-5.9,0.6
			c1.2,4.4,3.6,8.2,6.7,11C24.2,53.8,26,53.2,27.8,52.5z M38.6,57.4c-2.8-0.5-5.8-1.5-8.6-3.3c-1.7,0.8-3.4,1.5-5.2,2.1
			c3.1,2,6.4,3.3,9.5,3.9C35.8,59.3,37.2,58.4,38.6,57.4z"/>
	</g>
	<g>
		<path class="st3" d="M35.8,53.4v-5.8h1.2v5.8H35.8z"/>
		<path class="st3" d="M41.5,53.4l-2.2-3.7v3.7h-1.2v-5.8h1.2l2.2,3.8v-3.8h1.2v5.8H41.5z"/>
		<path class="st3" d="M47.3,53.4l-2.2-3.7v3.7h-1.2v-5.8h1.2l2.2,3.8v-3.8h1.2v5.8H47.3z"/>
		<path class="st3" d="M49.4,50.5c0-2,1.2-3,2.6-3c1.4,0,2.6,1,2.6,3c0,2-1.2,3-2.6,3C50.6,53.4,49.4,52.5,49.4,50.5z M53.4,50.5
			c0-1.5-0.7-2-1.4-2c-0.8,0-1.4,0.5-1.4,2c0,1.4,0.7,2,1.4,2C52.8,52.4,53.4,51.9,53.4,50.5z"/>
		<path class="st3" d="M59.1,47.5h1.3l-2.2,5.8H57l-2.1-5.8h1.3l1.4,4.5L59.1,47.5z"/>
		<path class="st3" d="M63.8,51.9h-2.1l-0.5,1.5h-1.2l2.1-5.8h1.2l2.1,5.8h-1.2L63.8,51.9z M62.1,51.1h1.5l-0.7-2.1L62.1,51.1z"/>
		<path class="st3" d="M67.1,53.4v-4.9h-2v-0.9h5.1v0.9h-1.9v4.9H67.1z"/>
		<path class="st3" d="M70.9,53.4v-5.8h1.2v5.8H70.9z"/>
		<path class="st3" d="M73,50.5c0-2,1.2-3,2.6-3c1.4,0,2.6,1,2.6,3c0,2-1.2,3-2.6,3C74.2,53.4,73,52.5,73,50.5z M77.1,50.5
			c0-1.5-0.7-2-1.4-2c-0.8,0-1.4,0.5-1.4,2c0,1.4,0.7,2,1.4,2C76.4,52.4,77.1,51.9,77.1,50.5z"/>
		<path class="st3" d="M82.6,53.4l-2.2-3.7v3.7h-1.2v-5.8h1.2l2.2,3.8v-3.8h1.2v5.8H82.6z"/>
		<path class="st3" d="M90,53.3c-0.3,0.1-0.6,0.2-1.1,0.2c-1.4,0-2.3-0.8-2.3-2.1c0-1.2,0.8-1.6,1-1.6c-0.1-0.2-0.3-0.6-0.3-1.1
			c0-0.8,0.6-1.6,1.8-1.6c1.2,0,1.8,0.8,1.8,1.6c0,0.5-0.1,0.8-0.1,0.8h-1c0,0,0.1-0.2,0.1-0.6c0-0.4-0.2-0.7-0.7-0.7
			c-0.4,0-0.7,0.3-0.7,0.7c0,0.8,1.3,1.3,2.1,2.7c0.1-0.3,0.2-0.6,0.2-1.1h0.9c0,1.1-0.4,1.8-0.8,2.2c0.1,0.4,0.2,0.8,0.2,1.4h-1
			C90.1,53.9,90,53.6,90,53.3z M89.7,52.4c-0.4-0.9-1.1-1.4-1.5-1.8c-0.1,0-0.4,0.3-0.4,0.8c0,0.7,0.5,1.2,1.3,1.2
			C89.3,52.5,89.5,52.5,89.7,52.4z"/>
		<path class="st3" d="M94.4,53.4v-5.8h3.7v0.9h-2.5V50h2V51h-2v1.5h2.5v0.9H94.4z"/>
		<path class="st3" d="M102.4,53.4l-2.2-3.7v3.7h-1.2v-5.8h1.2l2.2,3.8v-3.8h1.2v5.8H102.4z"/>
		<path class="st3" d="M106.3,53.4v-4.9h-2v-0.9h5.1v0.9h-1.9v4.9H106.3z"/>
		<path class="st3" d="M115,53.4c0,0-0.2,0.1-0.6,0.1c-1.8,0-1.3-2.2-2.5-2.2h-0.6v2.2h-1.2v-5.8h2.1c1.4,0,2.2,0.5,2.2,1.8
			c0,0.9-0.6,1.3-1,1.5c0.6,0.5,0.6,1.6,1.4,1.6h0.2V53.4z M112,50.3c0.7,0,1.2-0.3,1.2-0.9c0-0.6-0.4-0.9-1.1-0.9h-0.9v1.9H112z"/>
		<path class="st3" d="M115.7,53.4v-5.8h3.7v0.9h-2.5V50h2V51h-2v1.5h2.5v0.9H115.7z"/>
		<path class="st3" d="M120.4,53.4v-5.8h2c1.4,0,2.3,0.7,2.3,2c0,1.3-0.9,1.9-2.1,1.9h-1v1.9H120.4z M122.3,50.6
			c0.8,0,1.2-0.4,1.2-1c0-0.6-0.4-1.1-1.2-1.1h-0.8v2.1H122.3z"/>
		<path class="st3" d="M130.4,53.4c0,0-0.2,0.1-0.6,0.1c-1.8,0-1.3-2.2-2.5-2.2h-0.6v2.2h-1.2v-5.8h2.1c1.4,0,2.2,0.5,2.2,1.8
			c0,0.9-0.6,1.3-1,1.5c0.6,0.5,0.6,1.6,1.4,1.6h0.2V53.4z M127.4,50.3c0.7,0,1.2-0.3,1.2-0.9c0-0.6-0.4-0.9-1.1-0.9h-0.9v1.9H127.4
			z"/>
		<path class="st3" d="M131.1,53.4v-5.8h3.7v0.9h-2.5V50h2V51h-2v1.5h2.5v0.9H131.1z"/>
		<path class="st3" d="M139.1,53.4l-2.2-3.7v3.7h-1.2v-5.8h1.2l2.2,3.8v-3.8h1.2v5.8H139.1z"/>
		<path class="st3" d="M141.5,53.4v-5.8h3.7v0.9h-2.5V50h2V51h-2v1.5h2.5v0.9H141.5z"/>
		<path class="st3" d="M149.5,47.5h1.2V51c0,1.9-1,2.5-2.2,2.5c-1.2,0-2.3-0.6-2.3-2.5v-3.4h1.2v3.5c0,0.8,0.3,1.4,1.1,1.4
			c0.8,0,1.1-0.5,1.1-1.4V47.5z"/>
		<path class="st3" d="M156.7,53.4c0,0-0.2,0.1-0.6,0.1c-1.8,0-1.3-2.2-2.5-2.2h-0.6v2.2h-1.2v-5.8h2.1c1.4,0,2.2,0.5,2.2,1.8
			c0,0.9-0.6,1.3-1,1.5c0.6,0.5,0.6,1.6,1.4,1.6h0.2V53.4z M153.7,50.3c0.7,0,1.2-0.3,1.2-0.9c0-0.6-0.4-0.9-1.1-0.9h-0.9v1.9H153.7
			z"/>
		<path class="st3" d="M160.7,49.2c0,0-0.3-0.7-1.3-0.7c-0.6,0-1,0.3-1,0.7c0,1.3,3.1,0.4,3.1,2.6c0,0.8-0.6,1.7-2.2,1.7
			c-1.8,0-2.4-1.2-2.4-1.2l0.7-0.7c0,0,0.6,0.9,1.7,0.9c0.6,0,1-0.3,1-0.7c0-1.4-3.2-0.4-3.2-2.6c0-0.9,0.8-1.7,2.1-1.7
			c1.8,0,2.2,1.1,2.2,1.1L160.7,49.2z"/>
		<path class="st3" d="M165.9,53.4v-2.3h-2.3v2.3h-1.2v-5.8h1.2v2.6h2.3v-2.6h1.2v5.8H165.9z"/>
		<path class="st3" d="M168.3,53.4v-5.8h1.2v5.8H168.3z"/>
		<path class="st3" d="M170.7,53.4v-5.8h2c1.4,0,2.3,0.7,2.3,2c0,1.3-0.9,1.9-2.1,1.9h-1v1.9H170.7z M172.7,50.6
			c0.8,0,1.2-0.4,1.2-1c0-0.6-0.4-1.1-1.2-1.1h-0.8v2.1H172.7z"/>
	</g>
	<g>
		<g>
			<path class="st4" d="M37.1,25.5c-1,0-1.8-0.7-1.8-1.7c0-1,0.8-1.7,1.8-1.7c1,0,1.8,0.8,1.8,1.7C38.9,24.8,38.1,25.5,37.1,25.5z
				 M39.5,42.3c0,0-0.4,0.1-1.2,0.1c-1.6,0-2.6-0.9-2.6-3.1v-11h2.6V39c0,0.9,0.3,1.4,1.2,1.4V42.3z"/>
			<path class="st4" d="M55.5,42.3c0,0-0.4,0.1-1.2,0.1c-1.6,0-2.6-0.9-2.6-3.1v-5.7c0-1.9-0.9-3.3-3-3.3c-2.3,0-3.4,2.3-3.4,4v8
				h-2.5V31.6c0-0.8-0.3-1.4-1.2-1.4v-1.9c0,0,0.4-0.1,1.2-0.1c1.2,0,2.3,0.8,2.3,2.1v0.7c0.4-1.5,1.8-2.9,4.4-2.9
				c3.5,0,4.9,2.5,4.9,5.5V39c0,0.9,0.3,1.4,1.2,1.4V42.3z"/>
			<path class="st4" d="M59,42.3V30.4h-2v-2.1h2v-2.1c0-3,1.5-5.1,4.8-5.1c2.4,0,3.5,1.3,3.5,1.3l-0.9,1.9c0,0-0.7-1-2.4-1
				c-1.6,0-2.5,1.1-2.5,3.1v1.9h5v2.1h-5v11.9H59z"/>
			<path class="st4" d="M67.7,35.3c0-4.5,2.4-7.2,6.2-7.2c3.8,0,6.2,2.7,6.2,7.2c0,4.5-2.4,7.2-6.2,7.2
				C70.1,42.5,67.7,39.8,67.7,35.3z M77.6,35.3c0-3.3-1.5-5-3.7-5c-2.2,0-3.7,1.7-3.7,5c0,3.3,1.5,5,3.7,5
				C76.1,40.3,77.6,38.6,77.6,35.3z"/>
			<path class="st4" d="M83.3,42.3V22h5.4c5.4,0,9.8,3,9.8,10.4c0,7-3.8,9.9-8.9,9.9H83.3z M89.6,40.1c3.7,0,6.2-2.5,6.2-7.7
				c0-5.5-2.8-8.1-7.2-8.1H86v15.8H89.6z"/>
			<path class="st4" d="M103.6,35.8L103.6,35.8c0,3.4,2.3,4.5,4.1,4.5c2.5,0,3.6-1.9,3.6-1.9l1.4,1.4c0,0-1.4,2.7-5.4,2.7
				c-3.3,0-6.3-2.1-6.3-7.2c0-4.8,2.4-7.2,6.2-7.2c4.1,0,5.4,2.9,5.4,4.6c0,2.9-2,3.6-5.2,3.6C105,36.4,103.6,35.8,103.6,35.8z
				 M107,34.4c1.7,0,3.2-0.2,3.2-1.5c0-0.9-0.8-2.6-3.1-2.6c-2,0-3.4,1.4-3.4,3.3C103.6,33.6,104.8,34.4,107,34.4z"/>
			<path class="st4" d="M119.3,42.3l-5.3-14h2.9l3.9,11l4-11h2.7l-5.3,14H119.3z"/>
		</g>
	</g>
</g>
</svg>
